<?xml version="1.0" encoding="utf-8"?>
<!-- Generator: Adobe Illustrator 22.1.0, SVG Export Plug-In . SVG Version: 6.00 Build 0)  -->
<svg version="1.1" id="Layer_1" xmlns="http://www.w3.org/2000/svg" xmlns:xlink="http://www.w3.org/1999/xlink" x="0px" y="0px"
	 width="700px" height="87px" viewBox="0 0 700 87" enable-background="new 0 0 700 87" xml:space="preserve">
<title>Final 2020 Logo Hvid</title>
<path fill="#FFFFFF" d="M27.8,60.8C11.5,60.8,0,49.2,0,34.1c0-14,10.6-27,27.8-27c5.8,0.1,11.5,0.9,17,2.4v10.3H44
	c-3.1-5.3-8.1-9.1-16.1-9.1c-12.9,0-20.1,10.9-20.1,23.1c0,11.5,7.5,23.7,21.3,23.7c3.7,0,7.3-1.1,10.4-3.1V37.7L32.2,34v-0.9h19.2
	V34l-4.9,3.7v18.7C40.6,59.1,34.2,60.6,27.8,60.8z"/>
<path fill="#FFFFFF" d="M62.9,39.6c-0.1,0.7-0.1,1.4-0.1,2c0,8.8,5.6,13.8,12.4,13.8c3.3,0,6.5-0.6,9.5-1.9l0.5,0.9
	c-1.4,1.7-6.5,6.3-12.8,6.3c-8.4,0-16-5.9-16-17.3c0-10.7,8.3-18.1,15.4-18.1c5,0,11.2,3.4,13.4,14v0.2H62.9z M63.5,36.6h14.2
	c-0.9-6-4.6-7.8-6.7-7.8C68.3,28.9,64.9,31.5,63.5,36.6z"/>
<path fill="#FFFFFF" d="M111.6,60v-0.9l5.4-3.3V36.3c0-2.5-2.6-6-7.5-6c-3.1,0.1-6.1,1.3-8.3,3.5v21.9l5.4,3.3V60H89.2v-0.9l5.4-3.3
	V32.2l-5.2-2.4v-1c0,0,6-2.2,11.7-3.7V31c2.1-2.2,6.3-5.6,11.3-5.6c7.1,0,11.1,5.3,11.1,8.2v22.1l5.4,3.3V60L111.6,60z"/>
<path fill="#FFFFFF" d="M150.9,59.1V60h-19.2v-0.9l5.4-3.3V30.5h-5.2v-1.1l5.3-3.1v-2.2c0-11.5,7.5-20.4,18.1-20.4
	c2.5,0,4.9,0.3,7.3,0.9l-2,5.7c-3-1.6-6.4-2.9-8.7-2.9c-3.3,0-8.2,4.7-8.2,13.7v5.3h11.2l-3.4,4.1h-7.8v25.3L150.9,59.1z"/>
<path fill="#FFFFFF" d="M173.2,25.3c9.1,0,16.8,7.1,16.8,17.4s-7.8,18-16.8,18c-9,0-16.7-7-16.7-17.2S164.3,25.3,173.2,25.3z
	 M173.2,57.5c5.1,0,9.8-6,9.8-14.4s-4.7-14.5-9.8-14.5s-9.7,6.1-9.7,14.5S168.2,57.5,173.2,57.5L173.2,57.5z"/>
<path fill="#FFFFFF" d="M194.4,29.8v-1c0,0,5.8-2.2,11.7-3.7v7.3c5.1-5.7,7.7-7.2,9.1-7.2c1.4,0.1,2.9,0.4,4.2,0.9l-2,6.9
	c-1.1-0.6-2.4-0.9-3.7-1c-2.8,0.1-5.4,1.1-7.6,2.8v21l7.1,3.3v0.9h-19.1v-0.9l5.4-3.3V32.2L194.4,29.8z"/>
<path fill="#FFFFFF" d="M229.1,39.6c-0.1,0.7-0.1,1.4-0.1,2c0,8.8,5.6,13.8,12.4,13.8c3.3,0,6.5-0.6,9.5-1.9l0.5,0.9
	c-1.4,1.7-6.5,6.3-12.8,6.3c-8.4,0-16-5.9-16-17.3c0-10.7,8.3-18.1,15.4-18.1c5,0,11.2,3.4,13.4,14v0.2H229.1z M229.6,36.6h14.2
	c-0.9-6-4.6-7.8-6.7-7.8C234.5,28.9,231.1,31.5,229.6,36.6L229.6,36.6z"/>
<path fill="#FFFFFF" d="M277.7,60v-0.9l5.4-3.3V36.3c0-2.5-2.6-6-7.5-6c-3.1,0.1-6.1,1.3-8.3,3.5v21.9l5.4,3.3V60h-17.4v-0.9
	l5.4-3.3V32.2l-5.2-2.4v-1c0,0,6-2.2,11.7-3.7V31c2.1-2.2,6.3-5.6,11.3-5.6c7.1,0,11.1,5.3,11.1,8.2v22.1l5.4,3.3V60L277.7,60z"/>
<path fill="#FFFFFF" d="M298.2,60v-0.9l5.4-3.3V32.2l-5.2-2.4v-1c0,0,5.9-2.2,11.7-3.7v30.7l5.4,3.3V60H298.2z M306.5,8.6
	c2.4,0,4.3,1.9,4.3,4.3s-1.9,4.3-4.3,4.3c-2.4,0-4.3-1.9-4.3-4.3c-0.1-2.3,1.8-4.3,4.2-4.3C306.4,8.5,306.4,8.5,306.5,8.6L306.5,8.6
	z"/>
<path fill="#FFFFFF" d="M341.3,60v-0.9l5.4-3.3V36.3c0-2.5-2.6-6-7.5-6c-3.1,0.1-6.1,1.3-8.3,3.5v21.9l5.4,3.3V60h-17.4v-0.9
	l5.4-3.3V32.2l-5.2-2.4v-1c0,0,6-2.2,11.7-3.7V31c2.1-2.2,6.3-5.6,11.3-5.6c7.1,0,11.1,5.3,11.1,8.2v22.1l5.4,3.3V60L341.3,60z"/>
<path fill="#FFFFFF" d="M376.8,25.4c1.7,0,3.4,0.3,5,0.7H395v3.7h-7.7c2,1.8,3.1,4.3,3.1,7c0,7.1-6.3,12-13.5,12
	c-1.6,0-3.2-0.2-4.7-0.6c-1.2,1-2.4,2.2-2.4,4c0,1.8,1.5,2.8,3.4,2.8h13.3c4.9,0.7,8.5,4.9,8.4,9.9c0,7.6-8.2,15.6-19.2,15.6
	c-8.5,0-13.6-4.5-13.6-9c0-3.8,3.8-8.2,7.2-10.7c-3-0.8-5.1-3.5-5.3-6.6c-0.1-1.5,0.4-3,1.5-4.2l4.5-2.7c-4-1.9-6.7-5.5-6.7-10.1
	C363.2,30.5,369.5,25.4,376.8,25.4z M371.8,61.2c-1.4,1.2-4.2,4.3-4.2,7.7c0,4.2,4.2,7.4,9.7,7.4c8,0,12.1-5,12.1-10.1
	c0-3.4-3.2-5-5.5-5L371.8,61.2z M376.8,45.7c3.5,0,6.9-3.8,6.9-8.6s-3.4-8.7-6.9-8.7c-3.5,0-7,3.8-7,8.7S373.3,45.7,376.8,45.7
	L376.8,45.7z"/>
<path fill="#FFFFFF" d="M404.8,39.6c-0.1,0.7-0.1,1.4-0.1,2c0,8.8,5.6,13.8,12.4,13.8c3.3,0,6.5-0.6,9.5-1.9l0.5,0.9
	c-1.4,1.7-6.5,6.3-12.8,6.3c-8.4,0-16-5.9-16-17.3c0-10.7,8.3-18.1,15.4-18.1c5,0,11.2,3.4,13.4,14v0.2H404.8z M405.3,36.6h14.2
	c-0.9-6-4.6-7.8-6.7-7.8C410.2,28.9,406.7,31.5,405.3,36.6L405.3,36.6z"/>
<path fill="#FFFFFF" d="M453.4,60v-0.9l5.4-3.3V36.3c0-2.5-2.6-6-7.5-6c-3.1,0.1-6.1,1.3-8.3,3.5v21.9l5.4,3.3V60H431v-0.9l5.4-3.3
	V32.2l-5.2-2.4v-1c0,0,6-2.2,11.7-3.7V31c2.1-2.2,6.3-5.6,11.3-5.6c7.1,0,11.1,5.3,11.1,8.2v22.1l5.4,3.3V60L453.4,60z"/>
<path fill="#FFFFFF" d="M506.5,32.6c0.9-1.6,4.5-7.3,12.1-7.3c6.2,0,10.6,3.5,10.6,9.5c0,6.9-5,12.1-15,19.7h19.4l-2.5,5.5h-25.4
	v-0.9c13.8-12.6,16.4-18.2,16.4-22.9c0-4.4-2.9-6.3-6.7-6.3c-3.8,0-6.7,2.9-7.6,3.8L506.5,32.6z"/>
<path fill="#FFFFFF" d="M566.5,25.1c9.7-0.2,17.7,7.6,17.9,17.3c0,0.1,0,0.2,0,0.4c0.1,9.9-7.9,18-17.8,18.1c0,0-0.1,0-0.1,0
	c-9.6,0.2-17.5-7.4-17.8-17c0-0.3,0-0.5,0-0.8C548.7,33.5,556.6,25.1,566.5,25.1z M566.5,56.6c7,0,12.6-5.9,12.6-13.5
	s-5.5-13.5-12.6-13.5c-7.2,0-12.6,5.9-12.6,13.5S559.4,56.6,566.5,56.6L566.5,56.6z"/>
<path fill="#FFFFFF" d="M600.7,32.6c0.9-1.6,4.5-7.3,12.1-7.3c6.2,0,10.6,3.5,10.6,9.5c0,6.9-5,12.1-15,19.7h19.4l-2.5,5.5H600v-0.9
	c13.8-12.5,16.4-18.2,16.4-22.9c0-4.4-2.9-6.3-6.7-6.3c-3.8,0-6.7,2.9-7.6,3.8L600.7,32.6z"/>
<path fill="#FFFFFF" d="M660.7,25.1c9.7-0.2,17.7,7.6,17.9,17.3c0,0.1,0,0.2,0,0.4c0.1,9.9-7.9,18-17.8,18.1c0,0-0.1,0-0.1,0
	c-9.6,0.2-17.5-7.4-17.8-17c0-0.3,0-0.5,0-0.8C642.9,33.5,650.8,25.1,660.7,25.1z M660.7,56.6c7,0,12.6-5.9,12.6-13.5
	s-5.5-13.5-12.6-13.5c-7.2,0-12.6,5.9-12.6,13.5S653.6,56.6,660.7,56.6L660.7,56.6z"/>
<polygon fill="#FFFFFF" points="484.4,5.6 484.4,86.3 592.2,86.3 592.2,80.6 490,80.6 490,11.3 592.2,11.3 592.2,5.6 "/>
<polygon fill="#FFFFFF" points="592.2,0 592.2,5.7 694.3,5.7 694.3,75 592.2,75 592.2,80.7 700,80.7 700,0 "/>
</svg>
