<?xml version="1.0" encoding="utf-8"?>
<!-- Generator: Adobe Illustrator 22.1.0, SVG Export Plug-In . SVG Version: 6.00 Build 0)  -->
<svg version="1.1" id="Layer_1" xmlns="http://www.w3.org/2000/svg" xmlns:xlink="http://www.w3.org/1999/xlink" x="0px" y="0px"
	 width="200px" height="81px" viewBox="0 0 200 81" enable-background="new 0 0 200 81" xml:space="preserve">
<title>Final 2020 Logo Hvid</title>
<path fill="#FFFFFF" d="M20.5,30.3c0.8-1.5,4.2-6.8,11.2-6.8c5.7,0,9.8,3.3,9.8,8.8c0,6.4-4.7,11.2-13.9,18.3h18l-2.3,5.1H19.9v-0.8
	C32.7,43.2,35.1,38,35.1,33.6c0-4-2.7-5.9-6.2-5.9c-3.4,0-6.2,2.7-7,3.6L20.5,30.3z"/>
<path fill="#FFFFFF" d="M76.1,23.3c9.4,0,16.6,7.3,16.6,16.4c0,9.1-7.2,16.8-16.6,16.8c-9.5,0-16.5-7.1-16.5-16.5
	C59.7,31,67,23.3,76.1,23.3z M76.2,52.5c6.5,0,11.7-5.4,11.7-12.6c0-7-5.1-12.6-11.7-12.6c-6.7,0-11.7,5.5-11.7,12.6
	C64.6,47,69.6,52.5,76.2,52.5L76.2,52.5z"/>
<path fill="#FFFFFF" d="M107.9,30.3c0.8-1.5,4.2-6.8,11.2-6.8c5.7,0,9.8,3.3,9.8,8.8c0,6.4-4.7,11.2-13.9,18.3h18l-2.3,5.1h-23.5
	v-0.8C120,43.2,122.5,38,122.5,33.6c0-4-2.7-5.9-6.2-5.9c-3.4,0-6.2,2.7-7,3.6L107.9,30.3z"/>
<path fill="#FFFFFF" d="M163.5,23.3c9.4,0,16.6,7.3,16.6,16.4c0,9.1-7.2,16.8-16.6,16.8C154,56.5,147,49.4,147,40
	C147,31,154.4,23.3,163.5,23.3z M163.6,52.5c6.5,0,11.7-5.4,11.7-12.6c0-7-5.1-12.6-11.7-12.6c-6.7,0-11.7,5.5-11.7,12.6
	C151.9,47,157,52.5,163.6,52.5z"/>
<polygon fill="#FFFFFF" points="0,5.2 0,80 100,80 100,74.8 5.2,74.8 5.2,10.4 100,10.4 100,5.2 "/>
<polygon fill="#FFFFFF" points="100,0 100,5.2 194.8,5.2 194.8,69.6 100,69.6 100,74.8 200,74.8 200,0 "/>
</svg>
